<?xml version="1.0" encoding="utf-8"?>
<svg viewBox="0 0 500 500" xmlns="http://www.w3.org/2000/svg">
  <g id="XMLID_1477_" transform="matrix(0.666386, 0, 0, 0.689227, 49.70636, 28.756229)" style="">
    <path id="XMLID_1483_" d="M 361.197 177.999 C 366.002 176.144 367.625 175.521 382.725 179.172 L 425.123 189.794 L 425.233 189.821 C 449.908 195.791 469.757 164.097 474.226 156.282 C 479.253 148.759 481.033 139.776 479.237 130.903 C 477.395 121.801 472.034 114.026 464.142 109.011 C 458.323 105.312 449.299 98.019 438.851 89.573 C 418.471 73.1 390.56 50.541 360.965 34.104 C 354.999 30.791 348.741 28.217 342.261 26.405 L 342.025 -14.485 L 327.908 -13.945 C 326.482 -13.89 313.581 -13.198 300.114 -5.813 C 289.035 0.262 275.902 11.781 271.145 33.104 C 262.798 33.939 251.066 36.119 237.561 41.503 C 214.362 50.752 181.196 71.754 154.947 119.289 C 142.431 141.953 131.835 185.435 126.6 235.606 C 123.297 267.271 122.678 304.263 125.13 323.563 L 126.633 335.405 L 171.394 335.405 C 171.078 336.102 170.763 336.782 170.448 337.43 C 166.183 346.241 161.647 351.895 158.793 354.945 L 149.247 354.945 C 133.295 354.945 120.315 367.789 120.315 383.578 L 120.315 416.571 L 97.2 416.571 L 97.2 443.626 L 469 443.626 L 469 416.571 L 445.885 416.571 L 445.885 383.578 C 445.885 367.789 432.906 354.945 416.953 354.945 L 400.162 354.945 C 401.537 343.469 401.975 325.23 390.229 299.956 C 376.16 269.687 361.142 241.322 349.075 218.533 C 342.874 206.823 336.187 194.194 331.541 184.665 C 332.348 184.596 333.155 184.515 333.96 184.424 C 348.901 182.738 356.301 179.885 361.197 177.999 Z M 151.301 308.349 C 150.41 289.566 151.32 262.098 153.794 238.383 C 158.601 192.304 168.235 151.641 178.935 132.263 C 186.014 119.444 193.909 108.245 202.574 98.699 C 182.575 137.498 175.585 191.952 181.236 264.67 C 182.588 282.068 181.615 296.532 179.521 308.349 Z M 416.953 382 C 417.831 382 418.547 382.707 418.547 383.578 L 418.547 416.571 L 147.654 416.571 L 147.654 383.578 C 147.654 382.707 148.369 382 149.247 382 Z M 300.581 181.975 C 303.942 191.385 311.386 205.645 324.859 231.09 C 336.781 253.606 351.617 281.627 365.392 311.262 C 375.252 332.476 373.902 345.89 372.586 354.945 L 191.995 354.945 C 202.225 336.628 211.943 306.977 208.495 262.596 C 202.912 190.739 210.533 137.193 231.149 103.443 C 247.242 77.098 268.204 66.92 288.294 58.752 L 296.259 55.514 L 296.747 47.006 C 297.527 33.41 302.723 24.01 312.628 18.267 C 313.375 17.834 314.124 17.436 314.868 17.073 L 315.053 49.226 L 326.827 50.798 C 334.108 51.77 341.093 54.091 347.586 57.697 C 375.106 72.982 401.954 94.682 421.557 110.526 C 433.111 119.865 442.236 127.241 449.368 131.775 C 451.528 133.147 452.214 135.147 452.43 136.217 C 452.647 137.288 452.791 139.396 451.331 141.49 L 450.953 142.035 L 450.639 142.59 C 444.552 153.35 435.13 162.954 431.508 163.485 L 389.375 152.929 L 389.266 152.902 C 367.966 147.751 361.333 148.91 351.275 152.788 C 347.06 154.413 342.281 156.254 330.859 157.544 C 323.526 158.373 316.131 157.903 308.882 156.15 C 302.999 154.727 297.392 152.495 292.217 149.517 L 278.474 172.906 C 285.382 176.88 292.81 179.927 300.581 181.975 Z" style="fill: white; stroke: black; stroke-width: 5;"/>
    <path style="fill: black; stroke: rgb(0, 0, 0);" d="M 222.614 278.154 C 229.522 270.78 235.553 273.771 232.15 290.956"/>
    <path style="fill: rgb(216, 216, 216); stroke: rgb(0, 0, 0);" d="M 308.226 224.8"/>
  </g>
  <rect x="51.473" y="244.551" width="380.506" height="187.242" style="fill: black;"/>
  <g transform="matrix(0.484017, 0.465305, -0.477191, 0.458878, 233.855255, 100.913651)" style="fill: white;">
    <circle cx="362" cy="150" r="15"/>
    <circle cx="304.068" cy="92.068" r="15"/>
    <circle cx="419.926" cy="207.926" r="15"/>
    <path d="m467 0h-210c-24.813 0-45 20.187-45 45v83.993c-5.748-2.6-12.031-3.979-18.529-3.979-12.02 0-23.321 4.681-31.82 13.181l-148.492 148.493c-17.544 17.546-17.544 46.094 0 63.64l148.493 148.492c8.499 8.5 19.8 13.181 31.82 13.181s23.32-4.681 31.819-13.181l148.493-148.492c13.584-13.586 16.642-33.764 9.189-50.327h84.027c24.813 0 45-20.187 45-45v-210.001c0-24.813-20.187-45-45-45zm-114.43 329.114-148.492 148.492c-2.833 2.833-6.6 4.394-10.606 4.394-4.007 0-7.773-1.561-10.607-4.394l-148.493-148.492c-5.849-5.849-5.849-15.365 0-21.214l148.493-148.492c2.833-2.833 6.6-4.394 10.607-4.394 4.006 0 7.773 1.561 10.606 4.394l148.492 148.492c5.849 5.849 5.849 15.366 0 21.214zm129.43-74.114c0 8.271-6.729 15-15 15h-109.904l-115.096-115.095v-109.905c0-8.271 6.729-15 15-15h210c8.271 0 15 6.729 15 15z"/>
    <circle cx="204.078" cy="244.261" r="15"/>
    <circle cx="119.225" cy="329.114" r="15"/>
    <circle cx="161.651" cy="286.688" r="15"/>
    <circle cx="267.717" cy="307.901" r="15"/>
    <circle cx="182.864" cy="392.754" r="15"/>
    <circle cx="225.291" cy="350.327" r="15"/>
  </g>
</svg>