<?xml version="1.0" encoding="utf-8"?>
<svg viewBox="0 0 500 500" xmlns="http://www.w3.org/2000/svg">
  <g transform="matrix(0.760681, 0, 0, 0.779979, 62.575806, 61.820099)" style="">
    <path d="M 74.031 171.24 C 79.688 176.881 88.861 176.882 94.519 171.24 L 113.25 152.561 L 131.982 171.241 C 137.639 176.882 146.813 176.883 152.471 171.241 C 158.129 165.599 158.129 156.452 152.471 150.81 L 133.739 132.13 L 152.471 113.451 C 158.129 107.809 158.129 98.662 152.471 93.02 C 146.814 87.378 137.64 87.378 131.982 93.02 L 113.25 111.699 L 94.518 93.021 C 88.861 87.379 79.688 87.379 74.03 93.021 C 68.372 98.663 68.372 107.81 74.03 113.452 L 92.761 132.13 L 74.03 150.81 C 68.373 156.451 68.373 165.599 74.031 171.24 Z" style="fill: white; stroke: black; stroke-width: 10;"/>
    <path d="M 26.323 464.415 L 375.964 464.415 C 383.965 464.415 390.452 457.947 390.452 449.968 L 390.452 276.602 C 390.452 268.623 383.965 262.155 375.964 262.155 L 26.323 262.155 C 18.322 262.155 11.835 268.623 11.835 276.602 L 11.835 449.968 C 11.835 457.947 18.322 464.415 26.323 464.415 Z M 214.665 291.049 L 361.476 291.049 L 361.476 435.521 L 214.665 435.521 Z M 40.811 291.049 L 185.69 291.049 L 185.69 435.521 L 40.811 435.521 Z" style="fill: white; stroke: black; stroke-width: 10;"/>
    <path d="M 491.867 31 L 26.323 31 C 18.322 31 11.835 37.468 11.835 45.447 L 11.835 218.813 C 11.835 226.792 18.322 233.261 26.323 233.261 L 491.867 233.261 C 499.868 233.261 506.355 226.792 506.355 218.813 L 506.355 45.447 C 506.355 37.468 499.868 31 491.867 31 Z M 185.69 204.366 L 40.811 204.366 L 40.811 59.894 L 185.69 59.894 Z M 477.379 204.366 L 214.665 204.366 L 214.665 59.894 L 477.379 59.894 Z" style="fill: white; stroke: black; stroke-width: 10;"/>
    <g transform="matrix(5.485965, 0, 0, 6.026715, 67.492279, 317.176147)" style="fill: white;">
      <path d="M16,9c0,0.553-0.447,1-1,1H1c-0.553,0-1-0.447-1-1V7c0-0.552,0.447-1,1-1h14c0.553,0,1,0.448,1,1V9z "/>
      <path d="M7,4C6.447,4,6,3.553,6,3V1c0-0.553,0.447-1,1-1h2c0.553,0,1,0.447,1,1v2c0,0.553-0.447,1-1,1H7z"/>
      <path d="M7,16c-0.553,0-1-0.447-1-1v-2c0-0.553,0.447-1,1-1h2c0.553,0,1,0.447,1,1v2c0,0.553-0.447,1-1,1H7z "/>
    </g>
  </g>
</svg>