<svg xmlns="http://www.w3.org/2000/svg" enable-background="new 0 0 510.719 510.719" height="487.2105407714844" width="505" style=""><rect id="backgroundrect" width="100%" height="100%" x="0" y="0" fill="none" stroke="none"/><g class="currentLayer" style=""><title>Layer 1</title><path id="XMLID_1505_" d="m460.71900626680076,310.2789574698229 l-39.02626717905674,-65.70715268227113 l25.1134312078449,-42.52220358228787 l-21.325802185636242,-11.897581597314801 l-25.09293981516903,42.487152119932205 h-34.50012836480955 c-5.137601971695285,-14.710461451356887 -19.475019599151246,-25.32946129683437 -36.32550162437645,-25.32946129683437 c-2.5720796086757822,0 -5.0843243507380125,0.251733229645228 -7.515423177803776,0.7233347231578072 l-17.307030254043703,-29.133341586568427 l17.303751631215565,-29.126968593412858 c2.4327381384798357,0.47160149351257885 4.945802536249098,0.7233347231578072 7.518701800631916,0.7233347231578072 c21.151215520037784,0 38.35906743353025,-16.724327288518705 38.35906743353025,-37.280416711827115 s-17.207851913492473,-37.280416711827115 -38.35906743353025,-37.280416711827115 c-2.571259952968746,0 -5.08268503932394,0.251733229645228 -7.513783866389706,0.7225380990133604 l-24.40770764408778,-41.078720632550045 h-92.23585671264685 l-39.02380821193563,65.68962695109329 h-64.17822220513227 l-28.860897100408852,-45.774819964064655 l-20.965973330247877,12.487083464205522 l28.636311436681265,45.419525595641325 l-38.906597445829625,65.49923378057048 l24.41426488974406,41.10899235003903 c-5.9416842202966045,6.5681660709648835 -9.557185544027924,15.170113582702756 -9.557185544027924,24.583024473487605 c0,20.556089423308407 17.207851913492473,37.280416711827115 38.358247777823216,37.280416711827115 c16.851301680932256,0 31.188719308388208,-10.62059309376638 36.32550162437645,-25.33264779341216 h34.73373024131452 l31.801821777250378,53.533142506833244 l-32.60262540302356,51.28905229192625 l20.91925295494688,12.561169509639086 l32.85999729503254,-51.69294073316085 h63.98560311397905 l17.35538994075877,29.22336011489093 c-5.90479971348003,6.5594032053759666 -9.495711366000299,15.13426549620265 -9.495711366000299,24.513718172920722 c0,20.556886047452853 17.207032257785436,37.280416711827115 38.358247777823216,37.280416711827115 c16.84966236951818,0 31.186260341267104,-10.618203221333042 36.32468196866942,-25.327868048545476 h34.66815778475172 l29.151055220699234,47.09084305069097 l21.069249949334285,-12.320589018016117 l-28.999418914897763,-46.844686190056876 zm-60.31108657934123,53.74026478438944 h-34.510783889001004 c-0.02540932691808462,-0.07408604543356412 -0.05491693237134422,-0.13940922527821184 -0.08114591499646402,-0.21190202242288175 c-5.199895805429944,-14.602917191856548 -19.48239650051455,-25.122339019278172 -36.25337192215738,-25.122339019278172 c-2.6056854926642163,0 -5.150716463007846,0.25651297451191024 -7.612142551233903,0.7400638301911918 l-17.259490223035673,-29.062442037712657 l17.35538994075877,-29.214597249302017 c2.4319184827728,0.47160149351257885 4.9441632248350285,0.7233347231578072 7.517062489217845,0.7233347231578072 c16.764418175986542,0 31.042820592535982,-10.511455585977155 36.247634332208136,-25.105609912244788 c0.027868294039189587,-0.07806916615579888 0.059834866613554055,-0.14817209086712835 0.08770316065274364,-0.22703788116737422 h34.510783889001004 l31.91903254335638,53.74026478438944 zm-57.07590550367413,-119.42829848719383 c0,7.378332825867402 -6.176925408215645,13.381692378419418 -13.76939622248071,13.381692378419418 s-13.768576566773673,-6.003359552552013 -13.768576566773673,-13.381692378419418 c0,-7.37912945001185 6.17610575250861,-13.381692378419418 13.768576566773673,-13.381692378419418 s13.76939622248071,6.003359552552013 13.76939622248071,13.381692378419418 zm0,-131.3744741573199 c0,7.378332825867402 -6.176925408215645,13.381692378419418 -13.76939622248071,13.381692378419418 s-13.768576566773673,-6.003359552552013 -13.768576566773673,-13.381692378419418 s6.17610575250861,-13.381692378419418 13.768576566773673,-13.381692378419418 s13.76939622248071,6.003359552552013 13.76939622248071,13.381692378419418 zm-123.73030759975912,-53.73867153610055 h63.843802676662015 l17.31276784399295,29.137324707290663 c-0.12704663459042326,0.1410024735671061 -0.241798433575321,0.2835981954231057 -0.35982885538835946,0.42619391727910494 c-5.725295113639369,6.514792253286939 -9.194078065811427,14.956618311990985 -9.194078065811427,24.175152911530777 c0,9.220924471973136 3.4696026078790903,17.66354715482163 9.196537032932529,24.179136032253012 c0.11557145469193335,0.1402058494226592 0.22868394226276129,0.2804116988453178 0.3532716097320801,0.4182276758346354 l-17.310308876871844,29.137324707290663 h-34.726353339951196 c-0.04180244105878439,-0.118696997522592 -0.08852281635977866,-0.23022437774516114 -0.13114491312559826,-0.34732812697886006 c-5.24169824648873,-14.528831146422986 -19.486494779049732,-24.97974329742217 -36.20255326832121,-24.97974329742217 c-2.5278182004958936,0 -4.996621190085267,0.24536023648965316 -7.38919619892039,0.7010292471132932 c-0.009016212777384885,0.0015932482888938527 -0.017212769847734708,0.0007966241444469263 -0.0262289826251196,0.002389872433340778 l-17.29309610702411,-29.108646238090575 zm6.5490490992095305,119.42192549403826 v0.04939069695570942 c-0.0262289826251196,7.357620598111785 -6.190039899528205,13.336284802185942 -13.76611759965257,13.336284802185942 c-7.5916511585580295,0 -13.768576566773673,-6.003359552552013 -13.768576566773673,-13.381692378419418 s6.176925408215645,-13.381692378419418 13.768576566773673,-13.381692378419418 c7.579356322952504,0 13.746445862683732,5.983443948940841 13.766937255359606,13.345844291919306 c-0.0008196557070349901,0.01035611387781004 -0.0008196557070349901,0.021508851900066996 -0.0008196557070349901,0.031864965777877105 zm-123.73440587829425,-53.732298542944974 h63.84954026661125 l17.308669565457777,29.139714579724004 c-0.07376901363314907,0.08125566273358661 -0.13114491312559826,0.1649011979005134 -0.19917633680950153,0.2469534847785473 c-5.817916208534323,6.5378943534759 -9.348992994441037,15.047433464457933 -9.348992994441037,24.349613599164655 c0,9.303773382995615 3.5335357530278197,17.815702366410992 9.353091272976213,24.35439334403134 c0.06721176797686897,0.08045903858913966 0.12376801176228316,0.162511325467173 0.19589771398136147,0.24297036405631264 l-17.309489221164807,29.139714579724004 h-34.6091425738452 c-0.03606485110953953,-0.10356113877810033 -0.07786729216832383,-0.19676616367839045 -0.11475179898489798,-0.29793743002315015 c-5.226124788055066,-14.55591636733418 -19.484855467635658,-25.031523866811224 -36.220585693875975,-25.031523866811224 c-2.5663420187265373,0 -5.072849170839522,0.25093660550078134 -7.499030063663075,0.7201482265800192 c-0.008196557070349868,0.0015932482888938527 -0.016393114140699824,-0.0015932482888938527 -0.02458967121104965,0 l-17.29965335268039,-29.130951714135083 zm-7.09493980009483,132.80521112074658 c-7.5924708142650665,0 -13.768576566773673,-6.003359552552013 -13.768576566773673,-13.381692378419418 c0,-7.37912945001185 6.176925408215645,-13.381692378419418 13.768576566773673,-13.381692378419418 s13.768576566773673,6.003359552552013 13.768576566773673,13.381692378419418 s-6.176925408215645,13.381692378419418 -13.768576566773673,13.381692378419418 zm109.64780289719101,-42.49113524065444 c0.004917934242209928,0.0007966241444469263 0.009835868484419847,-0.0007966241444469263 0.013934147019594802,0 c2.3958536316632606,0.45726225891253325 4.8687548997878105,0.7034191195466335 7.400671378818878,0.7034191195466335 c16.757041274623226,0 31.028886445516385,-10.50189609624379 36.23943777513779,-25.08569430863361 c0.031146916867329535,-0.08523878345582124 0.06557245656279909,-0.162511325467173 0.09589971772309343,-0.24854673306744085 h34.724714028537136 l17.31194818828591,29.140511203868446 c-0.13606284736780774,0.15056196330046898 -0.2598308591300913,0.3035137990342793 -0.3852381823064437,0.4556690106236392 c-5.709721655205705,6.510809132564704 -9.167029427479271,14.940685829102042 -9.167029427479271,24.145677818186243 c0,9.288637524251124 3.5212409174222956,17.78782052135535 9.324403323229989,24.322528378253462 c0.05737589949244924,0.06691642813354162 0.11065352044972337,0.13462948041153056 0.16966873135624222,0.20154590854507198 l-17.353750629344702,29.215393873446466 h-63.74216536898966 l-31.924770133305625,-53.74026478438944 zm124.59422471497398,173.86640602211878 c-7.5924708142650665,0 -13.768576566773673,-6.003359552552013 -13.768576566773673,-13.381692378419418 s6.17610575250861,-13.381692378419418 13.768576566773673,-13.381692378419418 s13.76939622248071,6.003359552552013 13.76939622248071,13.381692378419418 c-0.0008196557070349901,7.378332825867402 -6.17774506392268,13.381692378419418 -13.76939622248071,13.381692378419418 z" class="" fill="#ffffff" fill-opacity="1" stroke="#000000" stroke-opacity="1" stroke-width="9"/></g></svg>