<?xml version="1.0" encoding="utf-8"?>
<svg viewBox="13.511 12.981 32.589 32.874" xmlns="http://www.w3.org/2000/svg">
  <path d="M 38.801 30.329 C 37.729 30.333 36.794 31.075 36.526 32.135 L 29.368 32.135 C 28.914 32.135 28.63 32.637 28.857 33.039 C 28.963 33.225 29.157 33.34 29.368 33.34 L 34.6 33.34 C 34.411 35.961 34.586 38.596 35.118 41.167 L 26.51 41.167 L 26.931 38.156 L 28.188 38.156 C 28.642 38.156 28.926 37.655 28.699 37.253 C 28.593 37.067 28.399 36.952 28.188 36.952 L 22.882 36.952 C 22.557 36.952 22.293 36.683 22.293 36.35 L 22.293 33.34 C 22.293 33.063 22.108 32.822 21.846 32.756 L 20.766 32.48 C 20.469 32.401 20.324 32.058 20.471 31.783 C 21.403 29.739 21.829 27.494 21.713 25.243 C 21.697 24.937 21.703 24.63 21.729 24.324 C 22.049 20.995 24.726 18.417 27.999 18.287 L 32.399 18.287 C 32.853 20.083 35.04 20.703 36.335 19.404 C 37.63 18.105 37.063 15.861 35.314 15.365 C 34.043 15.004 32.729 15.779 32.399 17.083 L 27.984 17.083 C 24.109 17.229 20.937 20.276 20.555 24.216 C 20.524 24.577 20.517 24.939 20.535 25.3 C 20.642 27.351 20.256 29.398 19.409 31.261 C 18.937 32.223 19.46 33.384 20.482 33.644 L 21.115 33.806 L 21.115 36.35 C 21.115 37.348 21.907 38.156 22.884 38.156 L 25.741 38.156 L 25.246 41.683 C 25.195 42.046 25.471 42.371 25.831 42.371 L 35.853 42.371 C 36.236 42.371 36.518 42.003 36.425 41.623 C 35.809 38.91 35.595 36.118 35.789 33.34 L 36.526 33.34 C 36.983 35.13 39.167 35.745 40.457 34.445 C 41.747 33.145 41.176 30.907 39.429 30.415 C 39.224 30.358 39.013 30.329 38.801 30.329 Z M 34.674 16.481 C 35.581 16.481 36.149 17.485 35.695 18.287 C 35.241 19.09 34.107 19.09 33.653 18.287 C 33.549 18.104 33.495 17.897 33.495 17.685 C 33.495 17.02 34.023 16.481 34.674 16.481 Z M 38.801 33.942 C 37.893 33.942 37.326 32.938 37.78 32.135 C 38.233 31.333 39.368 31.333 39.822 32.135 C 39.925 32.318 39.98 32.526 39.98 32.738 C 39.98 33.403 39.452 33.942 38.801 33.942 Z" style="fill: white; stroke-width: 0.6px;"/>
  <path d="M 28.189 21.9 C 25.92 21.9 24.501 24.409 25.636 26.416 C 26.163 27.347 27.136 27.921 28.189 27.921 L 31.81 27.921 C 32.264 29.716 34.45 30.336 35.745 29.037 C 37.041 27.738 36.473 25.494 34.724 24.998 C 33.453 24.638 32.14 25.412 31.81 26.717 L 28.189 26.717 C 26.827 26.717 25.976 25.211 26.657 24.007 C 26.973 23.448 27.557 23.104 28.189 23.104 L 37.116 23.104 C 37.57 24.899 39.756 25.519 41.051 24.22 C 42.346 22.922 41.779 20.678 40.03 20.182 C 38.759 19.821 37.446 20.595 37.116 21.9 Z M 34.084 26.115 C 34.992 26.115 35.559 27.118 35.105 27.921 C 34.652 28.724 33.517 28.724 33.063 27.921 C 32.96 27.738 32.905 27.53 32.905 27.319 C 32.905 26.654 33.433 26.115 34.084 26.115 Z M 39.39 21.298 C 40.298 21.298 40.865 22.301 40.411 23.104 C 39.957 23.907 38.823 23.907 38.369 23.104 C 38.266 22.921 38.211 22.713 38.211 22.502 C 38.211 21.837 38.739 21.298 39.39 21.298 Z" style="fill: white; stroke-width: 0.6px;"/>
</svg>