<?xml version="1.0" encoding="utf-8"?>
<svg viewBox="0 0 500 500" xmlns="http://www.w3.org/2000/svg">
  <rect id="backgroundrect" width="100%" height="100%" x="0" y="0" fill="none" stroke="none" transform="matrix(1, 0, 0, 1, -395.62973, -213.908188)"/>
  <g class="currentLayer" style="" transform="matrix(0.948991, 0, 0, 0.929113, -18.78931, 17.004198)">
    <title>Layer 1</title>
    <path d="M 407.69 44.206 L 142.999 44.206 L 142.999 117.333 L 118.934 117.333 L 118.934 190.46 L 142.999 190.46 L 142.999 460.215 L 395.656 460.215 C 415.559 460.215 431.75 443.812 431.75 423.652 L 431.75 326.151 C 431.75 310.265 421.695 296.717 407.69 291.682 L 407.69 190.46 L 431.75 190.46 L 431.75 117.333 L 407.69 117.333 Z M 383.624 117.333 L 359.564 117.333 L 359.564 68.585 L 383.624 68.585 Z M 215.184 117.333 L 215.184 68.585 L 239.248 68.585 L 239.248 117.333 Z M 263.31 68.585 L 287.374 68.585 L 287.374 117.333 L 263.31 117.333 Z M 311.436 68.585 L 335.501 68.585 L 335.501 117.333 L 311.436 117.333 Z M 191.123 68.585 L 191.123 117.333 L 167.06 117.333 L 167.06 68.585 Z M 407.69 362.714 L 383.624 362.714 L 383.624 326.151 C 383.624 319.432 389.026 313.961 395.656 313.961 C 402.293 313.961 407.69 319.432 407.69 326.151 Z M 359.564 326.151 L 359.564 387.09 L 167.06 387.09 L 167.06 239.211 L 383.624 239.211 L 383.624 291.682 C 369.622 296.717 359.564 310.265 359.564 326.151 Z M 383.624 214.834 L 167.06 214.834 L 167.06 190.46 L 383.624 190.46 Z M 167.06 411.464 L 359.564 411.464 L 359.564 423.652 C 359.564 427.924 360.297 432.021 361.635 435.84 L 167.06 435.84 Z M 395.656 435.84 C 389.026 435.84 383.624 430.371 383.624 423.652 L 383.624 387.09 L 407.69 387.09 L 407.69 423.652 C 407.69 430.371 402.293 435.84 395.656 435.84 Z M 407.69 166.086 L 142.999 166.086 L 142.999 141.707 L 407.69 141.707 Z M 407.69 166.086" style="fill: white; stroke: black; stroke-width:8;" id="svg_1" class=""/>
    <path d="M 480.654 220.383 C 461.217 220.383 445.41 236.466 445.41 256.234 L 445.41 351.837 C 445.41 371.604 461.217 387.686 480.654 387.686 C 500.082 387.686 515.892 371.604 515.892 351.837 L 515.892 256.234 C 515.892 236.466 500.082 220.383 480.654 220.383 Z M 480.654 244.278 C 487.128 244.278 492.399 249.644 492.399 256.234 L 492.399 292.082 L 468.906 292.082 L 468.906 256.234 C 468.906 249.644 474.174 244.278 480.654 244.278 Z M 480.654 363.786 C 474.174 363.786 468.906 358.423 468.906 351.837 L 468.906 315.987 L 492.399 315.987 L 492.399 351.837 C 492.399 358.423 487.128 363.786 480.654 363.786 Z M 480.654 363.786" style="fill: white; stroke: black; stroke-width:8;" id="svg_2" class=""/>
  </g>
</svg>